<svg 
 xmlns="http://www.w3.org/2000/svg"
 xmlns:xlink="http://www.w3.org/1999/xlink"
 width="21px" height="29px">
<path fill-rule="evenodd"  fill="rgb(0, 0, 0)"
 d="M20.263,20.118 C20.161,20.219 20.021,20.282 19.867,20.282 L17.614,20.281 L18.457,22.640 C18.833,23.692 18.540,24.822 17.799,25.564 C17.642,25.720 17.466,25.858 17.272,25.975 L17.865,27.635 C17.941,27.846 17.882,28.072 17.734,28.220 C17.677,28.276 17.607,28.322 17.527,28.351 C17.236,28.454 16.915,28.303 16.811,28.012 L16.049,25.880 C16.049,25.880 16.048,25.879 16.048,25.879 C16.048,25.877 16.048,25.876 16.047,25.875 L14.047,20.280 L10.910,20.278 L10.911,21.397 C10.911,21.552 10.848,21.692 10.747,21.794 C10.646,21.895 10.506,21.958 10.351,21.957 C10.042,21.957 9.791,21.706 9.791,21.397 L9.791,20.277 L6.667,20.277 L4.669,25.874 L3.908,28.006 C3.879,28.087 3.834,28.156 3.777,28.214 C3.629,28.362 3.403,28.420 3.193,28.345 C2.902,28.241 2.750,27.921 2.854,27.629 L3.445,25.971 C2.978,25.690 2.604,25.278 2.365,24.773 C2.045,24.098 2.007,23.338 2.258,22.634 L3.100,20.275 L0.834,20.274 C0.525,20.274 0.274,20.023 0.274,19.714 C0.274,19.404 0.525,19.154 0.834,19.154 L3.499,19.155 L6.987,9.378 L6.986,6.276 C6.986,5.967 7.236,5.716 7.546,5.716 L8.665,5.717 L8.664,1.885 C8.664,1.436 8.838,1.015 9.155,0.698 C9.472,0.381 9.894,0.207 10.342,0.207 C11.268,0.207 12.022,0.960 12.022,1.886 L12.024,5.719 L13.144,5.719 C13.453,5.719 13.704,5.970 13.704,6.279 L13.705,9.347 L17.214,19.161 L19.866,19.162 C20.175,19.162 20.426,19.413 20.426,19.723 C20.426,19.877 20.364,20.016 20.263,20.118 ZM9.790,19.158 L9.790,18.038 C9.790,17.728 10.040,17.478 10.349,17.478 C10.658,17.478 10.909,17.730 10.909,18.038 L10.910,19.158 L13.646,19.160 L11.562,13.329 C11.178,13.478 10.767,13.555 10.348,13.555 C9.933,13.555 9.526,13.478 9.144,13.332 L7.066,19.157 L9.790,19.158 ZM3.312,23.011 C3.162,23.433 3.184,23.889 3.377,24.295 C3.486,24.525 3.642,24.724 3.835,24.879 L5.478,20.276 L4.288,20.275 L3.312,23.011 ZM7.345,11.706 L4.688,19.156 L5.877,19.156 L8.164,12.748 C7.821,12.455 7.544,12.101 7.345,11.706 ZM10.903,1.886 C10.903,1.578 10.651,1.327 10.343,1.327 C10.193,1.327 10.053,1.384 9.947,1.490 C9.841,1.595 9.783,1.736 9.783,1.886 L9.785,5.717 L10.904,5.719 L10.903,1.886 ZM12.584,6.838 L8.106,6.837 L8.107,10.195 C8.108,10.935 8.469,11.619 9.076,12.039 C9.117,12.058 9.154,12.082 9.188,12.111 C9.537,12.322 9.936,12.436 10.347,12.436 C10.784,12.436 11.206,12.310 11.569,12.074 C12.206,11.658 12.586,10.957 12.586,10.197 L12.584,6.838 ZM13.355,11.693 C13.195,12.015 12.983,12.313 12.726,12.570 C12.667,12.629 12.604,12.685 12.540,12.740 L14.835,19.160 L16.025,19.160 L13.355,11.693 ZM17.403,23.015 L16.425,20.280 L15.236,20.280 L16.882,24.885 C17.074,24.729 17.230,24.530 17.339,24.300 C17.532,23.894 17.554,23.438 17.403,23.015 ZM10.347,10.756 C10.037,10.756 9.787,10.506 9.786,10.196 C9.787,9.887 10.037,9.637 10.346,9.636 C10.655,9.637 10.906,9.888 10.907,10.197 C10.906,10.506 10.656,10.756 10.347,10.756 Z"/>
</svg>