<svg 
 xmlns="http://www.w3.org/2000/svg"
 xmlns:xlink="http://www.w3.org/1999/xlink"
 width="22px" height="26px">
<path fill-rule="evenodd"  fill="rgb(0, 0, 0)"
 d="M19.244,25.814 L3.155,25.814 C1.830,25.814 0.753,24.737 0.753,23.412 L0.753,4.908 C0.753,3.583 1.830,2.505 3.155,2.505 L6.918,2.505 C7.462,1.987 8.198,1.667 9.007,1.667 L9.440,1.667 C9.770,1.014 10.448,0.583 11.200,0.583 C11.952,0.583 12.630,1.014 12.960,1.667 L13.392,1.667 C14.201,1.667 14.936,1.987 15.481,2.505 L19.244,2.505 C20.569,2.505 21.647,3.583 21.647,4.908 L21.647,23.412 C21.647,24.737 20.569,25.814 19.244,25.814 ZM13.392,2.653 L12.625,2.653 C12.403,2.653 12.209,2.505 12.150,2.291 C12.032,1.866 11.642,1.569 11.200,1.569 C10.758,1.569 10.368,1.866 10.250,2.291 C10.191,2.505 9.997,2.653 9.775,2.653 L9.007,2.653 C7.937,2.653 7.057,3.478 6.969,4.525 L15.430,4.525 C15.342,3.478 14.461,2.653 13.392,2.653 ZM20.662,4.908 C20.662,4.126 20.026,3.491 19.244,3.491 L16.171,3.491 C16.332,3.861 16.422,4.269 16.422,4.698 L16.422,5.018 C16.422,5.290 16.202,5.511 15.930,5.511 L6.469,5.511 C6.197,5.511 5.976,5.290 5.976,5.018 L5.976,4.698 C5.976,4.269 6.066,3.861 6.228,3.491 L3.155,3.491 C2.374,3.491 1.738,4.126 1.738,4.908 L1.738,23.412 C1.738,24.193 2.374,24.829 3.155,24.829 L19.244,24.829 C20.026,24.829 20.662,24.193 20.662,23.412 L20.662,4.908 ZM18.296,19.703 L11.200,19.703 C10.928,19.703 10.707,19.483 10.707,19.211 C10.707,18.938 10.928,18.718 11.200,18.718 L18.296,18.718 C18.568,18.718 18.789,18.938 18.789,19.211 C18.789,19.483 18.568,19.703 18.296,19.703 ZM16.572,15.906 C16.664,15.998 16.716,16.125 16.716,16.254 C16.716,16.384 16.664,16.511 16.572,16.603 C16.480,16.694 16.353,16.747 16.223,16.747 C16.094,16.747 15.967,16.694 15.875,16.603 C15.783,16.511 15.731,16.384 15.731,16.254 C15.731,16.125 15.783,15.998 15.875,15.906 C15.967,15.813 16.094,15.761 16.223,15.761 C16.353,15.761 16.480,15.813 16.572,15.906 ZM11.200,15.761 L14.151,15.761 C14.423,15.761 14.643,15.983 14.643,16.254 C14.643,16.527 14.423,16.747 14.151,16.747 L11.200,16.747 C10.928,16.747 10.707,16.527 10.707,16.254 C10.707,15.983 10.928,15.761 11.200,15.761 ZM18.296,14.382 L11.200,14.382 C10.928,14.382 10.707,14.161 10.707,13.889 C10.707,13.616 10.928,13.396 11.200,13.396 L18.296,13.396 C18.568,13.396 18.789,13.616 18.789,13.889 C18.789,14.161 18.568,14.382 18.296,14.382 ZM16.572,10.583 C16.664,10.676 16.716,10.802 16.716,10.932 C16.716,11.061 16.664,11.189 16.572,11.281 C16.480,11.372 16.353,11.425 16.223,11.425 C16.094,11.425 15.967,11.372 15.875,11.281 C15.783,11.189 15.731,11.061 15.731,10.932 C15.731,10.802 15.783,10.676 15.875,10.583 C15.967,10.492 16.094,10.439 16.223,10.439 C16.353,10.439 16.480,10.492 16.572,10.583 ZM11.200,10.439 L14.151,10.439 C14.423,10.439 14.643,10.660 14.643,10.932 C14.643,11.204 14.423,11.425 14.151,11.425 L11.200,11.425 C10.928,11.425 10.707,11.204 10.707,10.932 C10.707,10.660 10.928,10.439 11.200,10.439 ZM18.296,9.059 L11.200,9.059 C10.928,9.059 10.707,8.839 10.707,8.567 C10.707,8.295 10.928,8.074 11.200,8.074 L18.296,8.074 C18.568,8.074 18.789,8.295 18.789,8.567 C18.789,8.839 18.568,9.059 18.296,9.059 ZM5.610,11.107 C5.514,11.204 5.388,11.252 5.262,11.252 C5.136,11.252 5.010,11.204 4.913,11.107 L3.916,10.110 C3.723,9.918 3.723,9.606 3.916,9.413 C4.108,9.221 4.420,9.221 4.613,9.413 L5.262,10.063 L7.369,7.955 C7.562,7.763 7.874,7.763 8.066,7.955 C8.259,8.148 8.259,8.460 8.066,8.652 L5.610,11.107 ZM4.498,13.396 L6.863,13.396 C7.135,13.396 7.356,13.616 7.356,13.889 L7.356,16.254 C7.356,16.527 7.135,16.747 6.863,16.747 L4.498,16.747 C4.226,16.747 4.005,16.527 4.005,16.254 L4.005,13.889 C4.005,13.616 4.226,13.396 4.498,13.396 ZM4.991,15.761 L6.370,15.761 L6.370,14.382 L4.991,14.382 L4.991,15.761 ZM4.498,18.718 L6.863,18.718 C7.135,18.718 7.356,18.938 7.356,19.211 L7.356,21.577 C7.356,21.848 7.135,22.069 6.863,22.069 L4.498,22.069 C4.226,22.069 4.005,21.848 4.005,21.577 L4.005,19.211 C4.005,18.938 4.226,18.718 4.498,18.718 ZM4.991,21.083 L6.370,21.083 L6.370,19.703 L4.991,19.703 L4.991,21.083 ZM11.200,21.083 L14.151,21.083 C14.423,21.083 14.643,21.304 14.643,21.577 C14.643,21.848 14.423,22.069 14.151,22.069 L11.200,22.069 C10.928,22.069 10.707,21.848 10.707,21.577 C10.707,21.304 10.928,21.083 11.200,21.083 ZM16.223,21.083 C16.353,21.083 16.480,21.137 16.572,21.228 C16.664,21.319 16.716,21.447 16.716,21.577 C16.716,21.706 16.664,21.833 16.572,21.925 C16.480,22.017 16.353,22.069 16.223,22.069 C16.094,22.069 15.967,22.017 15.875,21.925 C15.783,21.833 15.731,21.706 15.731,21.577 C15.731,21.447 15.783,21.319 15.875,21.228 C15.967,21.137 16.094,21.083 16.223,21.083 ZM11.199,2.702 C11.329,2.702 11.456,2.755 11.548,2.847 C11.639,2.938 11.692,3.066 11.692,3.195 C11.692,3.325 11.639,3.451 11.548,3.543 C11.456,3.635 11.329,3.688 11.199,3.688 C11.070,3.688 10.943,3.635 10.851,3.543 C10.759,3.451 10.707,3.325 10.707,3.195 C10.707,3.066 10.759,2.938 10.851,2.847 C10.943,2.755 11.070,2.702 11.199,2.702 Z"/>
</svg>