<svg 
 xmlns="http://www.w3.org/2000/svg"
 xmlns:xlink="http://www.w3.org/1999/xlink"
 width="12px" height="7px">
<path fill-rule="evenodd"  fill="rgb(28, 77, 162)"
 d="M11.041,3.270 L7.842,0.071 C7.780,0.010 7.689,-0.008 7.609,0.025 C7.529,0.058 7.477,0.136 7.477,0.222 L7.477,0.648 C7.477,0.706 7.500,0.759 7.540,0.799 L9.736,2.994 L1.078,2.994 C0.960,2.994 0.865,3.089 0.865,3.207 L0.865,3.634 C0.865,3.751 0.960,3.846 1.078,3.846 L9.736,3.846 L7.540,6.041 C7.500,6.082 7.477,6.135 7.477,6.192 L7.477,6.619 C7.477,6.705 7.529,6.783 7.609,6.815 C7.636,6.827 7.663,6.832 7.691,6.832 C7.746,6.832 7.801,6.810 7.842,6.770 L11.041,3.571 C11.125,3.488 11.125,3.353 11.041,3.270 Z"/>
</svg>