<svg 
 xmlns="http://www.w3.org/2000/svg"
 xmlns:xlink="http://www.w3.org/1999/xlink"
 width="30px" height="19px">
<path fill-rule="evenodd"  fill="rgb(0, 0, 0)"
 d="M19.510,13.182 C19.758,13.182 19.959,13.383 19.959,13.631 C19.959,13.879 19.758,14.080 19.510,14.080 L12.806,14.080 C12.558,14.080 12.357,13.879 12.357,13.631 C12.357,13.383 12.558,13.182 12.806,13.182 L19.510,13.182 ZM11.848,10.247 C11.733,10.247 11.618,10.204 11.531,10.116 L9.136,7.721 C8.961,7.545 8.961,7.261 9.136,7.086 C9.311,6.910 9.596,6.910 9.771,7.086 L11.848,9.163 L15.840,5.169 C16.015,4.995 16.300,4.995 16.475,5.169 C16.650,5.345 16.650,5.629 16.475,5.805 L12.165,10.116 C12.078,10.204 11.963,10.247 11.848,10.247 ZM29.087,15.996 L27.620,15.996 C27.620,16.007 27.620,16.016 27.620,16.026 C27.620,17.595 26.345,18.871 24.777,18.871 C23.209,18.871 21.934,17.595 21.934,16.026 C21.934,16.016 21.935,16.007 21.935,15.996 L11.817,15.996 C11.817,16.007 11.818,16.016 11.818,16.026 C11.818,17.595 10.542,18.871 8.975,18.871 C7.407,18.871 6.131,17.595 6.131,16.026 C6.131,16.016 6.132,16.007 6.132,15.996 L3.707,15.996 C3.196,15.996 2.779,15.580 2.779,15.068 L2.779,14.080 L1.313,14.080 C1.065,14.080 0.864,13.878 0.864,13.631 C0.864,13.383 1.065,13.182 1.313,13.182 L5.623,13.182 C5.871,13.182 6.072,13.383 6.072,13.631 C6.072,13.878 5.871,14.080 5.623,14.080 L3.677,14.080 L3.677,15.068 C3.677,15.085 3.691,15.098 3.707,15.098 L6.288,15.098 C6.673,13.984 7.732,13.182 8.975,13.182 C10.218,13.182 11.276,13.984 11.662,15.098 L20.976,15.098 L20.976,11.715 C20.976,11.467 21.177,11.265 21.425,11.265 C21.673,11.265 21.874,11.467 21.874,11.715 L21.874,15.098 L22.090,15.098 C22.476,13.984 23.534,13.182 24.777,13.182 C26.020,13.182 27.078,13.984 27.464,15.098 L28.638,15.098 L28.638,13.122 L28.129,13.122 C27.353,13.122 26.722,12.491 26.722,11.715 L26.722,10.757 C26.722,10.509 26.924,10.308 27.171,10.308 L28.567,10.308 C28.377,9.718 27.824,9.290 27.172,9.289 C27.172,9.289 27.172,9.289 27.171,9.289 C27.171,9.289 27.170,9.289 27.170,9.289 L21.874,9.289 L21.874,9.799 C21.874,10.047 21.673,10.247 21.425,10.247 C21.177,10.247 20.976,10.047 20.976,9.799 L20.976,1.654 C20.976,1.638 20.963,1.625 20.946,1.625 L3.707,1.625 C3.691,1.625 3.677,1.638 3.677,1.654 L3.677,9.799 C3.677,10.046 3.476,10.247 3.228,10.247 C2.980,10.247 2.779,10.046 2.779,9.799 L2.779,1.654 C2.779,1.143 3.196,0.727 3.707,0.727 L20.946,0.727 C21.458,0.727 21.874,1.143 21.874,1.654 L21.874,2.642 L25.256,2.642 C26.296,2.642 27.142,3.490 27.142,4.529 L27.142,5.008 C27.142,5.224 26.989,5.404 26.786,5.447 L27.529,8.419 C28.664,8.591 29.536,9.574 29.536,10.756 L29.536,15.548 C29.536,15.795 29.335,15.996 29.087,15.996 ZM8.975,14.080 C7.902,14.080 7.029,14.953 7.029,16.026 C7.029,17.100 7.902,17.972 8.975,17.972 C10.047,17.972 10.920,17.100 10.920,16.026 C10.920,14.953 10.047,14.080 8.975,14.080 ZM24.777,14.080 C23.705,14.080 22.832,14.953 22.832,16.026 C22.832,17.100 23.705,17.972 24.777,17.972 C25.850,17.972 26.723,17.100 26.723,16.026 C26.723,14.953 25.850,14.080 24.777,14.080 ZM26.244,4.529 C26.244,3.984 25.801,3.541 25.256,3.541 L21.874,3.541 L21.874,4.559 L26.244,4.559 L26.244,4.529 ZM25.863,5.458 L21.874,5.458 L21.874,8.391 L26.597,8.391 L25.863,5.458 ZM28.638,11.205 L27.620,11.205 L27.620,11.715 C27.620,11.995 27.849,12.224 28.129,12.224 L28.638,12.224 L28.638,11.205 ZM24.777,16.954 C24.266,16.954 23.849,16.538 23.849,16.026 C23.849,15.515 24.266,15.098 24.777,15.098 C25.289,15.098 25.705,15.515 25.705,16.026 C25.705,16.538 25.289,16.954 24.777,16.954 ZM8.975,16.954 C8.463,16.954 8.047,16.538 8.047,16.026 C8.047,15.515 8.463,15.098 8.975,15.098 C9.486,15.098 9.902,15.515 9.902,16.026 C9.902,16.538 9.486,16.954 8.975,16.954 ZM8.466,11.715 C8.466,11.963 8.265,12.164 8.017,12.164 L2.271,12.164 C2.023,12.164 1.822,11.963 1.822,11.715 C1.822,11.467 2.023,11.265 2.271,11.265 L8.017,11.265 C8.265,11.265 8.466,11.467 8.466,11.715 Z"/>
</svg>