<svg 
 xmlns="http://www.w3.org/2000/svg"
 xmlns:xlink="http://www.w3.org/1999/xlink"
 width="24px" height="28px">
<path fill-rule="evenodd"  fill="rgb(0, 0, 0)"
 d="M12.164,27.565 C12.111,27.582 12.055,27.590 12.000,27.590 C11.944,27.590 11.889,27.582 11.836,27.565 C7.825,26.318 0.334,21.950 0.334,17.038 L0.334,4.820 C0.334,4.574 0.495,4.358 0.730,4.288 L11.840,0.956 C11.944,0.925 12.054,0.925 12.159,0.956 L23.269,4.288 C23.505,4.359 23.666,4.574 23.666,4.820 L23.666,17.038 C23.666,21.950 16.175,26.318 12.164,27.565 ZM22.555,5.233 L12.000,2.068 L1.445,5.233 L1.445,17.038 C1.445,20.938 7.626,25.039 12.000,26.452 C16.374,25.039 22.555,20.938 22.555,17.038 L22.555,5.233 ZM11.281,18.542 C11.173,18.650 11.031,18.704 10.889,18.704 C10.747,18.704 10.604,18.649 10.496,18.542 L6.051,14.099 C5.835,13.882 5.835,13.531 6.051,13.314 C6.268,13.098 6.620,13.098 6.837,13.314 L10.889,17.363 L18.273,9.981 C18.489,9.765 18.842,9.765 19.058,9.981 C19.275,10.198 19.275,10.550 19.058,10.767 L11.281,18.542 Z"/>
</svg>