<svg 
 xmlns="http://www.w3.org/2000/svg"
 xmlns:xlink="http://www.w3.org/1999/xlink"
 width="21px" height="21px">
<path fill-rule="evenodd"  fill="rgb(15, 85, 161)"
 d="M13.968,7.165 C13.657,6.889 13.209,6.895 12.953,6.975 C13.121,6.766 13.512,6.594 13.628,6.573 C13.716,6.607 13.967,6.869 13.967,7.165 L13.968,7.165 ZM14.960,6.019 C14.756,4.908 12.214,5.644 10.933,5.172 C10.909,5.496 11.327,6.015 11.728,6.207 C11.043,6.810 10.428,8.026 10.305,9.512 C10.181,8.026 9.566,6.810 8.882,6.207 C9.282,6.015 9.701,5.496 9.676,5.172 C8.396,5.644 5.853,4.908 5.649,6.019 C5.605,6.254 5.717,6.613 5.837,6.716 C5.859,6.641 5.971,6.397 6.326,6.343 C8.117,6.067 9.612,8.871 8.262,10.005 C8.242,10.023 8.253,10.055 8.281,10.055 L12.328,10.055 C12.356,10.055 12.368,10.023 12.347,10.005 C10.997,8.871 12.493,6.067 14.284,6.343 C14.639,6.397 14.751,6.641 14.772,6.716 C14.892,6.613 15.004,6.254 14.960,6.019 L14.960,6.019 ZM15.396,3.468 C15.364,3.363 16.414,3.360 16.414,4.027 C16.414,4.476 15.786,4.687 15.786,5.152 C15.786,5.368 16.015,5.527 16.085,5.527 C15.924,4.782 16.593,5.172 16.773,5.311 C16.414,4.309 17.223,4.315 17.143,3.855 C17.088,3.534 16.385,3.631 16.131,3.468 C15.680,3.179 15.146,2.057 14.794,3.179 C15.450,3.798 15.068,4.708 14.236,4.708 C14.236,4.708 14.231,4.842 14.239,4.852 C15.232,4.803 15.578,4.061 15.396,3.468 L15.396,3.468 ZM3.812,5.311 C3.993,5.172 4.662,4.782 4.500,5.527 C4.570,5.527 4.799,5.368 4.799,5.152 C4.799,4.687 4.171,4.476 4.171,4.027 C4.171,3.360 5.221,3.363 5.189,3.468 C5.008,4.061 5.354,4.803 6.347,4.852 C6.354,4.842 6.349,4.708 6.349,4.708 C5.517,4.708 5.136,3.798 5.791,3.179 C5.439,2.057 4.906,3.179 4.454,3.468 C4.200,3.631 3.498,3.534 3.442,3.855 C3.363,4.315 4.171,4.309 3.812,5.311 L3.812,5.311 ZM6.631,7.165 C6.943,6.889 7.390,6.895 7.646,6.975 C7.479,6.766 7.086,6.594 6.971,6.573 C6.884,6.607 6.631,6.869 6.631,7.165 L6.631,7.165 ZM10.777,0.949 L10.293,0.350 L9.808,0.949 L10.293,1.580 L10.777,0.949 L10.777,0.949 ZM13.542,2.763 L13.198,2.337 L12.853,2.763 L13.198,3.179 L13.542,2.763 L13.542,2.763 ZM16.336,15.086 L15.899,14.617 L15.462,15.086 L15.899,15.498 L16.336,15.086 L16.336,15.086 ZM7.732,2.763 L7.388,2.337 L7.044,2.763 L7.388,3.179 L7.732,2.763 L7.732,2.763 ZM6.746,4.852 L8.030,4.852 C9.110,4.852 9.596,4.178 9.743,3.595 L10.842,3.595 C10.989,4.178 11.475,4.852 12.555,4.852 L13.840,4.852 C13.840,4.852 14.065,4.543 14.121,4.389 C14.324,3.837 14.065,3.579 13.686,3.579 L13.197,4.030 L12.708,3.579 C12.330,3.579 12.071,3.837 12.274,4.389 C12.300,4.460 12.362,4.564 12.420,4.655 C11.964,4.591 11.383,4.274 11.255,3.595 C11.255,3.595 11.592,3.052 11.676,2.831 C11.980,2.040 11.592,1.717 11.025,1.717 L10.293,2.591 L9.560,1.717 C8.993,1.717 8.605,2.040 8.909,2.831 C8.993,3.052 9.331,3.595 9.331,3.595 C9.203,4.274 8.621,4.591 8.165,4.655 C8.224,4.564 8.286,4.460 8.311,4.389 C8.514,3.837 8.255,3.579 7.877,3.579 L7.388,4.030 L6.899,3.579 C6.520,3.579 6.262,3.837 6.464,4.389 C6.521,4.543 6.746,4.852 6.746,4.852 L6.746,4.852 ZM20.028,8.898 C19.780,9.026 18.325,9.717 16.461,9.462 C16.481,9.372 16.497,9.280 16.510,9.188 C17.751,9.037 18.759,8.825 19.401,8.462 C20.134,8.047 20.454,7.059 20.084,6.324 C20.075,6.305 20.048,6.302 20.035,6.317 C19.832,6.554 18.559,7.961 16.552,8.399 C16.547,8.293 16.537,8.188 16.523,8.084 C17.498,7.522 18.449,6.874 18.903,6.283 C19.588,5.388 19.525,4.249 18.873,3.667 C18.866,3.660 18.857,3.657 18.848,3.659 C18.839,3.660 18.832,3.666 18.827,3.673 C18.621,4.019 16.690,7.188 14.571,8.555 C14.545,8.573 14.519,8.589 14.493,8.605 C14.432,8.642 14.426,8.723 14.478,8.770 C14.722,8.995 14.874,9.309 14.874,9.656 C14.874,10.260 14.415,10.763 13.809,10.871 C13.501,10.932 13.057,10.915 12.630,10.771 C12.610,10.765 12.591,10.777 12.591,10.798 L12.591,12.711 C12.591,12.741 12.637,12.750 12.647,12.720 C12.907,12.021 13.684,11.872 14.024,11.872 C14.146,12.619 14.365,13.238 14.649,13.572 C15.111,14.112 15.865,14.104 16.192,13.730 C16.198,13.724 16.200,13.716 16.199,13.707 C16.197,13.700 16.192,13.692 16.185,13.688 C15.993,13.576 14.893,12.890 14.673,11.766 C14.760,11.735 14.844,11.701 14.926,11.660 C15.281,12.257 15.798,12.789 16.214,12.992 C16.913,13.333 17.552,13.167 17.836,12.668 C17.846,12.651 17.834,12.629 17.813,12.627 C17.381,12.592 16.054,12.205 15.489,11.265 C15.554,11.204 15.617,11.142 15.676,11.074 C16.267,11.532 17.103,11.935 17.701,12.018 C18.401,12.115 19.195,11.888 19.214,11.060 C19.214,11.044 19.200,11.030 19.183,11.031 C18.934,11.047 17.285,11.120 16.111,10.435 C16.152,10.356 16.190,10.277 16.225,10.195 C16.225,10.195 18.000,10.620 18.840,10.479 C19.676,10.340 20.165,9.706 20.071,8.920 C20.068,8.900 20.045,8.888 20.028,8.898 L20.028,8.898 ZM4.360,10.195 C4.395,10.277 4.433,10.356 4.474,10.435 C3.300,11.120 1.653,11.047 1.403,11.031 C1.385,11.031 1.371,11.045 1.371,11.061 C1.391,11.888 2.184,12.115 2.884,12.018 C3.482,11.936 4.318,11.532 4.909,11.074 C4.969,11.142 5.032,11.204 5.096,11.265 C4.531,12.205 3.205,12.592 2.772,12.627 C2.751,12.629 2.739,12.651 2.749,12.669 C3.033,13.167 3.673,13.333 4.372,12.992 C4.788,12.789 5.305,12.257 5.660,11.660 C5.741,11.701 5.826,11.735 5.913,11.766 C5.692,12.890 4.592,13.576 4.400,13.688 C4.393,13.692 4.388,13.700 4.387,13.707 C4.385,13.716 4.388,13.724 4.393,13.730 C4.720,14.104 5.475,14.112 5.937,13.572 C6.221,13.238 6.439,12.620 6.561,11.872 C6.901,11.872 7.678,12.022 7.938,12.720 C7.949,12.750 7.995,12.741 7.995,12.711 L7.995,10.798 C7.995,10.777 7.975,10.765 7.956,10.771 C7.529,10.915 7.084,10.932 6.776,10.871 C6.170,10.763 5.712,10.260 5.712,9.656 C5.712,9.309 5.864,8.994 6.108,8.770 C6.160,8.723 6.153,8.642 6.092,8.605 C6.066,8.589 6.040,8.573 6.014,8.555 C3.896,7.188 1.967,4.022 1.759,3.674 C1.749,3.657 1.726,3.654 1.712,3.667 C1.061,4.249 0.998,5.389 1.682,6.283 C2.136,6.874 3.087,7.522 4.062,8.083 C4.048,8.188 4.038,8.293 4.033,8.399 C2.028,7.962 0.756,6.557 0.551,6.317 C0.537,6.302 0.510,6.305 0.501,6.324 C0.132,7.059 0.452,8.047 1.184,8.461 C1.826,8.825 2.835,9.037 4.075,9.188 C4.088,9.280 4.105,9.372 4.124,9.461 C2.262,9.717 0.808,9.027 0.558,8.898 C0.540,8.888 0.517,8.900 0.515,8.921 C0.421,9.707 0.910,10.340 1.745,10.479 C2.586,10.620 4.360,10.195 4.360,10.195 L4.360,10.195 ZM15.899,16.102 L15.253,15.586 C14.995,15.741 14.805,15.990 14.731,16.280 C14.342,16.335 13.282,16.096 13.385,15.937 C14.547,14.277 13.658,13.289 12.590,13.344 L12.590,14.459 C12.590,14.817 12.283,15.107 11.904,15.107 L11.166,15.107 C10.637,15.107 10.293,15.647 10.293,15.647 C10.293,15.647 9.948,15.107 9.419,15.107 L8.681,15.107 C8.302,15.107 7.995,14.817 7.995,14.459 L7.995,13.344 C6.927,13.289 6.038,14.277 7.200,15.937 C7.302,16.095 6.212,16.346 5.701,16.283 C5.566,16.140 5.372,16.051 5.155,16.051 C5.062,16.051 4.970,16.068 4.884,16.100 C4.884,16.100 2.875,14.169 2.838,14.150 L2.855,14.111 C2.969,13.894 2.794,13.656 2.683,13.673 C2.812,13.516 2.818,12.831 2.105,12.672 C2.125,12.810 2.136,13.091 2.136,13.091 C2.136,13.091 1.585,12.789 1.309,13.050 C1.066,13.341 1.403,13.871 1.403,13.871 C1.403,13.871 1.121,13.878 0.982,13.867 C1.187,14.568 1.872,14.519 2.020,14.380 C2.010,14.492 2.258,14.650 2.468,14.523 L2.560,14.478 C2.576,14.500 4.533,16.378 4.533,16.378 C4.443,16.513 4.400,16.679 4.429,16.857 C4.476,17.134 4.703,17.363 4.993,17.423 C5.198,17.465 5.390,17.424 5.545,17.332 L6.063,17.821 C6.109,17.863 6.171,17.890 6.241,17.884 C6.367,17.876 6.462,17.771 6.453,17.652 C6.449,17.598 6.422,17.552 6.384,17.517 C6.376,17.507 5.857,17.018 5.857,17.018 C6.285,16.713 7.083,16.498 7.745,16.498 C7.862,16.498 7.916,16.397 7.876,16.299 C7.576,15.566 8.221,15.036 8.889,15.468 C9.180,15.656 9.475,16.027 9.698,16.646 C8.603,16.916 7.228,17.658 6.950,18.468 C6.843,18.781 7.197,19.207 7.627,19.292 C7.634,19.295 7.642,19.293 7.649,19.289 C7.655,19.285 7.660,19.278 7.661,19.270 C7.886,18.061 9.166,17.160 9.832,17.007 C9.865,17.098 9.854,17.068 9.888,17.159 C9.163,17.508 8.459,18.243 8.258,19.117 C8.166,19.517 8.605,19.877 8.968,19.976 C8.986,19.981 9.004,19.968 9.005,19.950 C9.074,18.846 9.554,17.907 9.985,17.480 C9.996,17.563 10.005,17.647 10.011,17.732 C10.011,17.732 9.571,18.978 9.571,19.888 C9.571,20.313 10.190,20.607 10.281,20.649 C10.396,20.607 11.015,20.313 11.015,19.888 C11.015,18.978 10.574,17.732 10.574,17.732 C10.580,17.647 10.589,17.563 10.601,17.480 C11.031,17.907 11.512,18.845 11.580,19.950 C11.581,19.968 11.600,19.981 11.618,19.976 C11.981,19.878 12.420,19.517 12.328,19.117 C12.126,18.243 11.423,17.508 10.698,17.159 C10.731,17.068 10.720,17.098 10.754,17.007 C11.420,17.160 12.700,18.061 12.924,19.270 C12.926,19.278 12.930,19.285 12.937,19.289 C12.943,19.292 12.951,19.295 12.959,19.292 C13.388,19.207 13.743,18.781 13.635,18.468 C13.357,17.658 11.982,16.916 10.887,16.647 C11.110,16.027 11.406,15.656 11.697,15.468 C12.364,15.036 13.009,15.566 12.709,16.299 C12.669,16.397 12.723,16.498 12.840,16.498 C13.589,16.498 14.512,16.772 14.878,17.141 C15.111,17.497 15.542,17.724 16.029,17.675 C16.582,17.621 17.033,17.199 17.095,16.677 C17.150,16.219 16.917,15.809 16.546,15.586 L15.899,16.103 L15.899,16.102 ZM11.134,12.772 C11.364,12.685 11.725,12.756 11.713,13.093 C11.710,13.170 11.816,13.170 11.824,13.091 C11.893,12.586 11.556,12.441 11.204,12.500 C11.160,12.326 11.124,12.174 11.084,12.023 C11.051,11.901 11.039,11.672 11.178,11.672 C11.253,11.672 11.223,11.885 11.216,11.977 C11.210,12.058 11.238,12.106 11.302,12.109 C11.343,12.111 11.393,12.058 11.423,12.024 C11.624,11.792 11.671,11.434 11.435,11.260 C11.237,11.116 10.743,11.224 10.607,11.430 C10.586,11.352 10.488,11.224 10.441,11.168 C10.395,11.113 10.383,11.076 10.447,11.028 C10.476,11.005 10.567,10.914 10.567,10.819 C10.567,10.764 10.524,10.661 10.389,10.661 C10.283,10.661 10.164,10.736 10.164,10.903 C10.164,10.941 10.173,10.980 10.197,11.023 C10.130,11.011 9.947,11.016 9.853,11.040 L11.150,14.656 C11.522,14.470 11.794,14.175 11.794,13.859 C11.794,13.589 11.403,13.679 11.213,13.889 C11.152,13.546 11.098,13.231 11.038,12.916 C11.022,12.830 11.065,12.798 11.134,12.772 L11.134,12.772 ZM9.300,10.316 L9.572,11.085 C9.339,11.142 8.964,11.315 8.964,11.543 C8.964,11.848 9.494,12.046 9.801,12.022 C9.786,12.092 9.804,12.154 9.851,12.211 C9.740,12.211 9.530,12.263 9.461,12.339 C9.298,12.185 9.043,12.129 8.922,12.222 C8.801,12.317 8.797,12.477 8.924,12.657 C9.013,12.783 9.046,12.906 8.946,13.052 C9.316,13.052 9.180,12.564 9.325,12.564 C9.306,12.657 9.318,12.768 9.360,12.889 C9.388,12.969 9.388,13.026 9.340,13.105 C9.221,13.299 9.035,13.744 9.060,14.147 C8.939,14.145 8.877,14.116 8.920,13.948 C8.936,13.885 8.898,13.840 8.847,13.917 C8.792,14.003 8.765,14.148 8.765,14.211 C8.765,14.568 9.185,14.640 9.345,14.565 C9.810,15.021 10.721,14.899 11.027,14.746 L9.421,10.272 C9.389,10.188 9.271,10.228 9.300,10.316 L9.300,10.316 ZM9.244,14.001 C9.211,13.818 9.463,13.488 9.784,13.170 C9.716,13.377 9.758,13.734 9.892,13.857 C9.659,13.857 9.383,13.901 9.244,14.001 L9.244,14.001 Z"/>
</svg>